<?xml version="1.0" encoding="utf-8"?>
<!-- Generator: Adobe Illustrator 24.0.0, SVG Export Plug-In . SVG Version: 6.00 Build 0)  -->
<svg version="1.1" id="Layer_1" xmlns="http://www.w3.org/2000/svg" xmlns:xlink="http://www.w3.org/1999/xlink" x="0px" y="0px"
	 viewBox="0 0 567.5 655.3" style="enable-background:new 0 0 567.5 655.3;" xml:space="preserve">
<style type="text/css">
	.st0{fill:url(#SVGID_1_);}
	.st1{fill:url(#SVGID_2_);}
	.st2{fill:url(#SVGID_3_);}
	.st3{fill:url(#SVGID_4_);}
	.st4{fill:url(#SVGID_5_);}
	.st5{fill:url(#SVGID_6_);}
	.st6{fill:url(#SVGID_7_);}
	.st7{fill:url(#SVGID_8_);}
	.st8{fill:url(#SVGID_9_);}
	.st9{fill:url(#SVGID_10_);}
	.st10{fill:url(#SVGID_11_);}
	.st11{fill:url(#SVGID_12_);}
	.st12{fill:url(#SVGID_13_);}
	.st13{fill:url(#SVGID_14_);}
	.st14{fill:url(#SVGID_15_);}
	.st15{fill:url(#SVGID_16_);}
</style>
<linearGradient id="SVGID_1_" gradientUnits="userSpaceOnUse" x1="283.7494" y1="117.4793" x2="444.2878" y2="117.4793">
	<stop  offset="0" style="stop-color:#FF7A00"/>
	<stop  offset="1" style="stop-color:#B93800"/>
</linearGradient>
<polygon class="st0" points="283.7,0 283.7,142.3 444.3,235 "/>
<linearGradient id="SVGID_2_" gradientUnits="userSpaceOnUse" x1="295.126" y1="-11.3766" x2="518.9121" y2="212.4095">
	<stop  offset="0" style="stop-color:#FF741E"/>
	<stop  offset="1" style="stop-color:#FFAB00"/>
</linearGradient>
<polygon class="st1" points="283.7,0 444.3,235 567.5,163.8 "/>
<linearGradient id="SVGID_3_" gradientUnits="userSpaceOnUse" x1="472.5686" y1="396.5382" x2="636.3914" y2="232.7154">
	<stop  offset="0" style="stop-color:#FF741E"/>
	<stop  offset="1" style="stop-color:#FFAB00"/>
</linearGradient>
<polygon class="st2" points="567.5,163.8 444.3,235 567.5,491.5 "/>
<linearGradient id="SVGID_4_" gradientUnits="userSpaceOnUse" x1="404.1532" y1="304.4738" x2="607.6334" y2="421.9532">
	<stop  offset="0" style="stop-color:#FF7A00"/>
	<stop  offset="1" style="stop-color:#B93800"/>
</linearGradient>
<polygon class="st3" points="567.5,491.5 444.3,420.3 444.3,235 "/>
<linearGradient id="SVGID_5_" gradientUnits="userSpaceOnUse" x1="283.7494" y1="466.676" x2="567.4988" y2="466.676">
	<stop  offset="0" style="stop-color:#FF7A00"/>
	<stop  offset="1" style="stop-color:#B93800"/>
</linearGradient>
<polygon class="st4" points="567.5,491.5 283.7,513 444.3,420.3 "/>
<linearGradient id="SVGID_6_" gradientUnits="userSpaceOnUse" x1="283.7494" y1="573.3798" x2="567.4988" y2="573.3798">
	<stop  offset="0" style="stop-color:#FF741E"/>
	<stop  offset="1" style="stop-color:#FFAB00"/>
</linearGradient>
<polygon class="st5" points="567.5,491.5 283.7,655.3 283.7,513 "/>
<linearGradient id="SVGID_7_" gradientUnits="userSpaceOnUse" x1="0" y1="466.676" x2="283.7494" y2="466.676">
	<stop  offset="0" style="stop-color:#FF7A00"/>
	<stop  offset="1" style="stop-color:#B93800"/>
</linearGradient>
<polygon class="st6" points="283.7,513 0,491.5 123.2,420.3 "/>
<linearGradient id="SVGID_8_" gradientUnits="userSpaceOnUse" x1="0" y1="573.3798" x2="283.7494" y2="573.3798">
	<stop  offset="0" style="stop-color:#FF741E"/>
	<stop  offset="1" style="stop-color:#FFAB00"/>
</linearGradient>
<polygon class="st7" points="283.7,513 283.7,655.3 0,491.5 "/>
<linearGradient id="SVGID_9_" gradientUnits="userSpaceOnUse" x1="52.2735" y1="357.8257" x2="132.5428" y2="404.1692">
	<stop  offset="0" style="stop-color:#FF7A00"/>
	<stop  offset="1" style="stop-color:#B93800"/>
</linearGradient>
<polygon class="st8" points="0,491.5 123.2,235 123.2,420.3 "/>
<linearGradient id="SVGID_10_" gradientUnits="userSpaceOnUse" x1="-81.9114" y1="409.557" x2="107.9489" y2="219.6967">
	<stop  offset="0" style="stop-color:#FF741E"/>
	<stop  offset="1" style="stop-color:#FFAB00"/>
</linearGradient>
<polygon class="st9" points="0,491.5 0,163.8 123.2,235 "/>
<linearGradient id="SVGID_11_" gradientUnits="userSpaceOnUse" x1="203.4801" y1="0" x2="203.4801" y2="234.9586">
	<stop  offset="0" style="stop-color:#FF7A00"/>
	<stop  offset="1" style="stop-color:#B93800"/>
</linearGradient>
<polygon class="st10" points="283.7,142.3 123.2,235 283.7,0 "/>
<linearGradient id="SVGID_12_" gradientUnits="userSpaceOnUse" x1="111.8931" y1="51.9298" x2="209.0664" y2="149.1031">
	<stop  offset="0" style="stop-color:#FF741E"/>
	<stop  offset="1" style="stop-color:#FFAB00"/>
</linearGradient>
<polygon class="st11" points="283.7,0 123.2,235 0,163.8 "/>
<linearGradient id="SVGID_13_" gradientUnits="userSpaceOnUse" x1="212.812" y1="696.2468" x2="70.9373" y2="450.5127">
	<stop  offset="0" style="stop-color:#FF741E"/>
	<stop  offset="1" style="stop-color:#FFAB00"/>
</linearGradient>
<polygon class="st12" points="283.7,655.3 123.2,420.3 0,491.5 "/>
<linearGradient id="SVGID_14_" gradientUnits="userSpaceOnUse" x1="203.4801" y1="655.2911" x2="203.4801" y2="420.3325">
	<stop  offset="0" style="stop-color:#FF7A00"/>
	<stop  offset="1" style="stop-color:#B93800"/>
</linearGradient>
<polygon class="st13" points="283.7,655.3 283.7,513 123.2,420.3 "/>
<linearGradient id="SVGID_15_" gradientUnits="userSpaceOnUse" x1="283.7494" y1="537.8118" x2="444.2878" y2="537.8118">
	<stop  offset="0" style="stop-color:#FF7A00"/>
	<stop  offset="1" style="stop-color:#B93800"/>
</linearGradient>
<polygon class="st14" points="283.7,655.3 444.3,420.3 283.7,513 "/>
<linearGradient id="SVGID_16_" gradientUnits="userSpaceOnUse" x1="283.7494" y1="537.8118" x2="567.4988" y2="537.8118">
	<stop  offset="0" style="stop-color:#FF741E"/>
	<stop  offset="1" style="stop-color:#FFAB00"/>
</linearGradient>
<polygon class="st15" points="283.7,655.3 444.3,420.3 567.5,491.5 "/>
</svg>
